<?xml version="1.0" encoding="UTF-8"?>
<svg id="Layer_6" data-name="Layer 6" xmlns="http://www.w3.org/2000/svg" viewBox="7 115 76 60">
  <defs>
    <style>
      .cls-1 { fill: #fff; }
      .cls-1, .cls-2 { stroke: #231f20; stroke-miterlimit: 10; stroke-width: 1.5px; }
    </style>
  </defs>
  <path class="cls-2" d="M10.77,116.85h16.01c1.16,0,2.22.67,2.72,1.72l4.02,6.48c.5,1.05,1.56.72,2.72.72h42.05c1.55,0,2.8,1.25,2.8,2.8v40c0,1.53-1.23,2.78-2.76,2.8l-67.52.87c-1.56.02-2.83-1.24-2.83-2.8v-49.79c0-1.55,1.25-2.8,2.8-2.8Z"/>
  <path class="cls-1" d="M33.52,125.05H10.77c-1.54,0-2.8,1.25-2.8,2.8v41.59c0,1.54,1.25,2.8,2.8,2.8h67.52c1.54,0,2.8-1.25,2.8-2.8v-41.59c0-1.54-1.25-2.8-2.8-2.8h-44.77Z"/>
</svg>
