<?xml version="1.0" encoding="UTF-8"?>
<svg id="Layer_4" data-name="Layer 4" xmlns="http://www.w3.org/2000/svg" viewBox="0 0 298.41 132.17">
  <defs>
    <style>
      .cls-1 {
        fill: #fff;
        stroke: #231f20;
        stroke-miterlimit: 10;
        stroke-width: 1.5px;
      }
    </style>
  </defs>
  <path d="M3.01,0h15.8c1.16,0,2.22.67,2.72,1.72l4.02,6.48c.5,1.05,1.56.72,2.72.72h41.84c1.66,0,3.01,1.35,3.01,3.01v39.58c0,1.65-1.32,2.99-2.97,3.01l-67.09.86c-1.68.02-3.05-1.33-3.05-3.01V3.01C0,1.35,1.35,0,3.01,0Z"/>
  <path class="cls-1" d="M4.17,54.61l66.81-.86c1.49-.02,2.75-1.09,3.02-2.56l4.9-27.38c.34-1.9-1.12-3.65-3.06-3.65H9.04c-1.51,0-2.8,1.09-3.06,2.57L1.07,50.97c-.33,1.92,1.16,3.66,3.1,3.64Z"/>
</svg>